<?xml version="1.0" encoding="utf-8"?>
<!-- Generator: Adobe Illustrator 22.0.1, SVG Export Plug-In . SVG Version: 6.00 Build 0)  -->
<svg version="1.1" id="Warstwa_1" xmlns="http://www.w3.org/2000/svg" xmlns:xlink="http://www.w3.org/1999/xlink" x="0px" y="0px"
	 viewBox="0 0 79 76" style="enable-background:new 0 0 79 76;" xml:space="preserve">
<style type="text/css">
	.st0{fill:#3C3C3C;}
</style>
<path class="st0" d="M76.9,76H2.1C0.9,76,0,75.1,0,73.9c0,0,0,0,0,0V13c0-1.2,0.9-2.1,2.1-2.1c0,0,0,0,0,0h74.8
	c1.2,0,2.1,0.9,2.1,2.1v60.9C79,75.1,78.1,76,76.9,76z M4.2,71.8h70.7V15.1H4.2V71.8z M76.9,15.1H2.1C0.9,15.1,0,14.1,0,13
	c0,0,0,0,0,0V2.1C0,0.9,0.9,0,2.1,0c0,0,0,0,0,0h74.8C78.1,0,79,0.9,79,2.1V13C79,14.1,78.1,15.1,76.9,15.1z M4.2,10.9h70.7V4.2H4.2
	V10.9z M9.2,6.1c0.8,0,1.5,0.6,1.5,1.5C10.7,8.3,10,9,9.2,9S7.7,8.4,7.7,7.6c0,0,0,0,0,0C7.7,6.7,8.4,6.1,9.2,6.1z M13.5,6.1
	c0.8,0,1.5,0.6,1.5,1.5C15,8.3,14.4,9,13.6,9s-1.5-0.6-1.5-1.5c0,0,0,0,0,0C12.1,6.7,12.7,6.1,13.5,6.1z M17.9,6.1
	c0.8,0,1.5,0.6,1.5,1.5c0,0.8-0.6,1.5-1.5,1.5c-0.8,0-1.5-0.6-1.5-1.5c0,0,0,0,0,0C16.4,6.7,17.1,6.1,17.9,6.1z M29,49.2
	c-0.5,0-0.9-0.2-1.3-0.5l-5.7-5.7c-0.7-0.7-0.7-1.9,0-2.6l5.6-5.7c0.7-0.7,1.9-0.7,2.6,0c0.7,0.7,0.7,1.9,0,2.6L26,41.6l4.4,4.4
	c0.7,0.7,0.7,1.9,0,2.6C30,49,29.5,49.2,29,49.2L29,49.2z M50,49.2c-0.5,0-0.9-0.2-1.3-0.5c-0.7-0.7-0.7-1.9,0-2.6l4.4-4.4l-4.4-4.4
	c-0.7-0.7-0.7-1.9,0-2.6c0.7-0.7,1.9-0.7,2.6,0l5.7,5.7c0.7,0.7,0.7,1.9,0,2.6l-5.7,5.7C50.9,49,50.4,49.2,50,49.2L50,49.2z
	 M36.9,53.4c-0.2,0-0.3,0-0.5-0.1c-1-0.3-1.6-1.3-1.3-2.2l4.6-18.3c0.2-1,1.2-1.6,2.2-1.3c0,0,0,0,0,0c1,0.3,1.6,1.3,1.3,2.2
	L38.7,52C38.5,52.8,37.7,53.4,36.9,53.4L36.9,53.4z"/>
</svg>
